PathFileType	4	(x/y/z)	A01_STANDINGCAL_T0011.trc
DataRate	CameraRate	NumFrames	NumMarkers	Units	OrigDataRate	OrigDataStartFrame	OrigNumFrames
240	240	6	48	mm	240	1051	1200
Frame#	Time	TOP_HEAD			R_AC			L_AC			R_ASIS			L_ASIS			R_PSIS			L_PSIS			SACRAL			L_IC			R_IC			L_GT			R_GT			R_LAT_KNEE			R_MED_KNEE			L_MED_KNEE			L_LAT_KNEE			R_TOE			L_TOE			R_1ST_MET			L_1ST_MET			L_5TH_MET			R_5TH_MET			R_LAT_ANK			R_MED_ANK			L_MED_ANK			L_LAT_ANK			L_HEEL_SUP			R_HEEL_SUP			L_HEEL_LAT			R_HEEL_LAT			L_HEEL_MED			R_HEEL_MED			R_LL_PROX_POST			R_LL_PROX_ANT			R_LL_DIST_ANT			R_LL_DIST_POST			R_THIGH_PROX_POST			R_THIGH_PROX_ANT			R_THIGH_DIST_ANT			R_THIGH_DIST_POST			L_PROS_PROX_ANT			L_PROS_PROX_POST			L_PROS_DIST_POST			L_PROS_DIST_ANT			L_THIGH_PROX_ANT			L_THIGH_PROX_POST			L_THIGH_DIST_POST			L_THIGH_DIST_ANT			
		X1	Y1	Z1	X2	Y2	Z2	X3	Y3	Z3	X4	Y4	Z4	X5	Y5	Z5	X6	Y6	Z6	X7	Y7	Z7	X8	Y8	Z8	X9	Y9	Z9	X10	Y10	Z10	X11	Y11	Z11	X12	Y12	Z12	X13	Y13	Z13	X14	Y14	Z14	X15	Y15	Z15	X16	Y16	Z16	X17	Y17	Z17	X18	Y18	Z18	X19	Y19	Z19	X20	Y20	Z20	X21	Y21	Z21	X22	Y22	Z22	X23	Y23	Z23	X24	Y24	Z24	X25	Y25	Z25	X26	Y26	Z26	X27	Y27	Z27	X28	Y28	Z28	X29	Y29	Z29	X30	Y30	Z30	X31	Y31	Z31	X32	Y32	Z32	X33	Y33	Z33	X34	Y34	Z34	X35	Y35	Z35	X36	Y36	Z36	X37	Y37	Z37	X38	Y38	Z38	X39	Y39	Z39	X40	Y40	Z40	X41	Y41	Z41	X42	Y42	Z42	X43	Y43	Z43	X44	Y44	Z44	X45	Y45	Z45	X46	Y46	Z46	X47	Y47	Z47	X48	Y48	Z48	

1051	4.3786	587.91	1866.5	322.61	578.5	1594.2	488.97	595.01	1603.2	82.963	678.02	1094.2	486.9	710.46	1061.7	131.17	473.34	1100.5	339.92	492	1105.6	211.28	464.88	1075.4	271.15	669.48	1181.9	87.872	622.7	1197	497.45	646.11	971.96	82.903	603.98	986.11	515.93	547.46	581.32	468.99	597.95	570	345.22	603.91	558.67	304.52	592.22	575.88	146.87	774.79	72.708	452.96	776.79	85.553	172.58	697.99	57.623	395.43	695.89	57.162	225.25	670.08	50.727	95.082	651.46	45.971	523.64	526.37	111	475.94	565.49	117.43	378.75	565.22	126.56	208.56	540.04	122.95	141.2	453.75	73.263	173.23	448.42	69.461	408.25	466.09	45.585	142.67	452.13	45.485	443.14	472.28	44.79	206.19	462.85	43.469	381.81	515.56	399.83	500.12	451.54	404.61	465.59	471.65	323.75	467.84	523.36	324.08	491.14	546.97	862.79	493.31	615.6	876.58	512.68	612.95	784.99	507.36	547.44	773.12	488.54	637.46	492.79	156.13	583.5	493.57	142.61	577.07	430.67	146.28	629.51	437.32	158.61	687.59	822.1	125.88	621	833.97	102.01	622.35	758.78	117.6	683.67	748.96	138.6
1052	4.3828	587.92	1866.5	322.61	578.53	1594.2	488.98	595.03	1603.2	82.97	678.04	1094.2	486.9	710.47	1061.7	131.17	473.36	1100.5	339.92	492.02	1105.6	211.28	464.9	1075.4	271.15	669.5	1181.9	87.875	622.73	1197	497.45	646.12	971.95	82.903	604	986.12	515.93	547.48	581.32	468.99	597.94	569.98	345.21	603.91	558.67	304.53	592.22	575.88	146.87	774.79	72.71	452.96	776.79	85.555	172.58	697.99	57.623	395.43	695.89	57.162	225.25	670.08	50.728	95.082	651.46	45.971	523.64	526.37	111	475.94	565.49	117.42	378.75	565.22	126.56	208.56	540.04	122.95	141.2	453.75	73.264	173.23	448.42	69.461	408.25	466.09	45.585	142.67	452.13	45.484	443.14	472.28	44.79	206.19	462.85	43.464	381.81	515.57	399.82	500.12	451.55	404.61	465.59	471.65	323.75	467.84	523.37	324.07	491.15	546.99	862.79	493.31	615.62	876.58	512.68	612.96	784.98	507.36	547.46	773.12	488.55	637.46	492.79	156.14	583.5	493.57	142.61	577.07	430.67	146.28	629.51	437.32	158.61	687.6	822.1	125.88	621.01	833.97	102.01	622.35	758.78	117.6	683.68	748.96	138.6
1053	4.387	587.93	1866.5	322.6	578.56	1594.2	488.99	595.06	1603.2	82.977	678.06	1094.2	486.91	710.49	1061.7	131.17	473.38	1100.5	339.92	492.04	1105.6	211.29	464.92	1075.4	271.15	669.51	1181.9	87.877	622.75	1197	497.46	646.13	971.95	82.902	604.02	986.12	515.92	547.5	581.32	468.99	597.93	569.96	345.21	603.91	558.67	304.53	592.22	575.88	146.88	774.78	72.711	452.96	776.79	85.556	172.58	697.99	57.623	395.43	695.89	57.161	225.25	670.08	50.728	95.082	651.46	45.972	523.64	526.37	111	475.94	565.49	117.42	378.74	565.22	126.56	208.56	540.04	122.95	141.2	453.75	73.265	173.22	448.42	69.46	408.25	466.09	45.585	142.67	452.13	45.482	443.14	472.28	44.789	206.19	462.85	43.459	381.81	515.58	399.82	500.13	451.57	404.61	465.59	471.66	323.75	467.84	523.37	324.07	491.15	547.01	862.78	493.32	615.64	876.58	512.67	612.98	784.98	507.36	547.48	773.12	488.55	637.46	492.79	156.14	583.5	493.57	142.61	577.07	430.67	146.28	629.51	437.32	158.62	687.61	822.09	125.88	621.02	833.97	102.02	622.36	758.78	117.6	683.68	748.95	138.6
1054	4.3912	587.94	1866.5	322.59	578.59	1594.2	489	595.09	1603.2	82.984	678.08	1094.2	486.91	710.5	1061.7	131.17	473.4	1100.5	339.92	492.05	1105.6	211.29	464.94	1075.4	271.15	669.53	1181.9	87.879	622.77	1197	497.46	646.14	971.95	82.902	604.04	986.13	515.92	547.52	581.32	468.99	597.91	569.94	345.2	603.92	558.67	304.53	592.22	575.88	146.88	774.78	72.713	452.96	776.79	85.557	172.58	697.99	57.624	395.43	695.89	57.161	225.25	670.08	50.728	95.081	651.46	45.973	523.64	526.37	111	475.94	565.49	117.42	378.74	565.22	126.56	208.56	540.04	122.95	141.2	453.75	73.265	173.22	448.42	69.46	408.25	466.09	45.585	142.67	452.13	45.481	443.14	472.28	44.789	206.19	462.85	43.454	381.81	515.59	399.82	500.13	451.58	404.61	465.59	471.67	323.75	467.84	523.38	324.07	491.15	547.03	862.78	493.32	615.66	876.58	512.67	613	784.98	507.36	547.5	773.12	488.56	637.46	492.79	156.14	583.5	493.57	142.62	577.07	430.67	146.29	629.51	437.32	158.62	687.61	822.09	125.88	621.02	833.97	102.02	622.36	758.77	117.6	683.69	748.95	138.6
1055	4.3953	587.96	1866.5	322.59	578.63	1594.2	489	595.11	1603.2	82.991	678.1	1094.2	486.91	710.51	1061.6	131.16	473.42	1100.5	339.93	492.07	1105.6	211.29	464.95	1075.4	271.15	669.54	1181.9	87.88	622.79	1197	497.46	646.15	971.95	82.901	604.06	986.13	515.92	547.54	581.32	468.99	597.88	569.91	345.2	603.93	558.67	304.54	592.22	575.88	146.88	774.78	72.715	452.96	776.79	85.558	172.58	697.99	57.624	395.43	695.89	57.161	225.25	670.08	50.729	95.081	651.46	45.974	523.64	526.37	111	475.94	565.49	117.42	378.74	565.22	126.56	208.57	540.04	122.95	141.2	453.75	73.266	173.22	448.42	69.459	408.25	466.09	45.585	142.67	452.13	45.479	443.14	472.28	44.789	206.19	462.85	43.448	381.81	515.59	399.82	500.13	451.59	404.61	465.59	471.67	323.75	467.84	523.39	324.07	491.15	547.05	862.78	493.32	615.68	876.57	512.67	613.02	784.98	507.37	547.52	773.12	488.56	637.46	492.79	156.14	583.5	493.57	142.62	577.07	430.67	146.29	629.51	437.32	158.62	687.62	822.09	125.88	621.03	833.97	102.02	622.36	758.77	117.61	683.69	748.95	138.6
1056	4.3995	587.97	1866.5	322.58	578.66	1594.2	489.01	595.14	1603.2	82.997	678.12	1094.2	486.91	710.53	1061.6	131.16	473.44	1100.5	339.93	492.09	1105.6	211.29	464.97	1075.4	271.15	669.56	1181.9	87.882	622.82	1197	497.46	646.16	971.94	82.9	604.08	986.13	515.92	547.56	581.32	469	597.84	569.88	345.19	603.94	558.67	304.54	592.22	575.88	146.89	774.78	72.717	452.96	776.79	85.559	172.58	697.99	57.625	395.43	695.89	57.161	225.26	670.07	50.729	95.081	651.46	45.975	523.64	526.37	111	475.94	565.49	117.42	378.74	565.22	126.56	208.57	540.04	122.95	141.2	453.75	73.268	173.22	448.41	69.458	408.25	466.09	45.585	142.67	452.12	45.477	443.14	472.28	44.789	206.19	462.85	43.443	381.81	515.6	399.82	500.13	451.6	404.61	465.59	471.68	323.74	467.84	523.39	324.07	491.15	547.07	862.77	493.32	615.7	876.57	512.67	613.04	784.98	507.37	547.55	773.12	488.57	637.46	492.79	156.15	583.5	493.57	142.63	577.07	430.67	146.29	629.51	437.32	158.62	687.63	822.08	125.88	621.04	833.97	102.02	622.37	758.77	117.61	683.7	748.94	138.6
